<svg xmlns="http://www.w3.org/2000/svg" xmlns:xlink="http://www.w3.org/1999/xlink" width="512" zoomAndPan="magnify" viewBox="0 0 384 383.999986" height="512" preserveAspectRatio="xMidYMid meet" version="1.0"><defs><clipPath id="8601f17e46"><path d="M 4.160156 38.398438 L 379.910156 38.398438 L 379.910156 384 L 4.160156 384 Z M 4.160156 38.398438 " clip-rule="nonzero"/></clipPath><clipPath id="de30dc01a1"><path d="M 170 274 L 237.390625 274 L 237.390625 374.714844 L 170 374.714844 Z M 170 274 " clip-rule="nonzero"/></clipPath><clipPath id="d4d0657804"><path d="M 169.683594 273.945312 L 237.390625 273.945312 L 237.390625 374.714844 L 169.683594 374.714844 Z M 169.683594 273.945312 " clip-rule="nonzero"/></clipPath></defs><rect x="-38.4" width="460.8" fill="#ffffff" y="-38.399999" height="460.799983" fill-opacity="1"/><rect x="-38.4" width="460.8" fill="#ffffff" y="-38.399999" height="460.799983" fill-opacity="1"/><path stroke-linecap="butt" transform="matrix(0.749975, 0.00612808, -0.00612808, 0.749975, 72.468575, 97.740931)" fill="none" stroke-linejoin="miter" d="M 1.645014 1.139315 C 31.487726 44.235461 61.33244 44.23119 91.179243 1.136917 " stroke="#ffffff" stroke-width="4" stroke-opacity="1" stroke-miterlimit="4"/><path stroke-linecap="butt" transform="matrix(0.749975, 0.00612808, -0.00612808, 0.749975, 251.994626, 97.740931)" fill="none" stroke-linejoin="miter" d="M 1.646738 1.1393 C 31.48945 44.235447 61.334164 44.231176 91.175759 1.136946 " stroke="#ffffff" stroke-width="4" stroke-opacity="1" stroke-miterlimit="4"/><g clip-path="url(#8601f17e46)"><path fill="#22354d" d="M 4.300781 387.9375 C 4.300781 381.675781 14.726562 327.871094 16.492188 325.011719 C 17.121094 323.992188 18.6875 317.394531 19.96875 310.347656 C 22.957031 293.914062 28.46875 276.253906 31.714844 272.71875 C 33.109375 271.195312 45.625 267.582031 59.527344 264.683594 C 102.238281 255.785156 121.066406 248.929688 130.359375 238.886719 C 134.789062 234.101562 141.488281 229.113281 145.246094 227.804688 C 151.21875 225.722656 152.082031 224.398438 152.082031 217.304688 C 152.082031 212.84375 150.714844 207.234375 149.046875 204.839844 C 147.382812 202.445312 145.28125 196.023438 144.386719 190.5625 C 143.488281 185.105469 140.882812 178.863281 138.59375 176.691406 C 136.308594 174.519531 134.433594 171.75 134.433594 170.535156 C 134.433594 169.320312 132.203125 165.308594 129.472656 161.617188 C 125.238281 155.890625 124.46875 151.929688 124.234375 134.683594 C 123.777344 101.367188 126.632812 86.121094 135.964844 72.066406 C 149.140625 52.21875 174.582031 38.46875 198.253906 38.40625 C 207.507812 38.382812 211.394531 39.453125 215.277344 43.105469 C 218.210938 45.859375 225.105469 48.589844 231.800781 49.648438 C 245.117188 51.753906 257.09375 60.210938 262.910156 71.617188 C 265.832031 77.347656 266.765625 84.617188 266.769531 101.65625 C 266.769531 114.257812 267.742188 124.734375 268.976562 125.496094 C 274.976562 129.203125 269.382812 154.816406 259.972656 166.726562 C 256.433594 171.203125 253.515625 176.660156 253.492188 178.855469 C 253.464844 181.050781 251.480469 187.171875 249.078125 192.460938 C 241.109375 210.023438 243.851562 227.40625 255.207031 231.296875 C 257.320312 232.019531 262.527344 237.082031 266.773438 242.539062 C 271.019531 248 276.972656 253.027344 280.007812 253.714844 C 283.039062 254.398438 296.640625 259.328125 310.230469 264.671875 C 323.820312 270.011719 335.601562 274.378906 336.414062 274.378906 C 337.222656 274.378906 342.183594 277.109375 347.4375 280.445312 C 356.832031 286.40625 361.617188 294.367188 361.617188 304.019531 C 361.617188 306.613281 363.667969 312.671875 366.175781 317.476562 C 370.214844 325.210938 372.960938 340.039062 378.523438 384.109375 L 379.707031 393.484375 L 4.300781 393.484375 L 4.300781 387.933594 Z M 4.300781 387.9375 " fill-opacity="1" fill-rule="nonzero"/></g><g clip-path="url(#de30dc01a1)"><path fill="#ffffff" d="M 196.835938 274.273438 L 196.835938 300.964844 L 170.019531 300.964844 L 170.019531 314.3125 L 196.835938 314.3125 L 196.835938 374.375 L 210.242188 374.375 L 210.242188 314.3125 L 237.054688 314.3125 L 237.054688 300.964844 L 210.242188 300.964844 L 210.242188 274.273438 Z M 196.835938 274.273438 " fill-opacity="1" fill-rule="nonzero"/></g><g clip-path="url(#d4d0657804)"><path stroke-linecap="butt" transform="matrix(0.134071, 0, 0, 0.133469, 161.640522, 261.759471)" fill="none" stroke-linejoin="miter" d="M 262.514236 93.759046 L 262.514236 293.74047 L 62.497036 293.74047 L 62.497036 393.745816 L 262.514236 393.745816 L 262.514236 843.755237 L 362.508269 843.755237 L 362.508269 393.745816 L 562.496334 393.745816 L 562.496334 293.74047 L 362.508269 293.74047 L 362.508269 93.759046 Z M 262.514236 93.759046 " stroke="#000000" stroke-width="5" stroke-opacity="1" stroke-miterlimit="4"/></g><path stroke-linecap="butt" transform="matrix(1.574496, 0.0128653, -0.0128653, 1.574496, 128.346633, 215.949593)" fill="none" stroke-linejoin="miter" d="M 1.644892 1.137484 C 31.48811 44.23339 61.333961 44.232651 91.177501 1.13779 " stroke="#ffffff" stroke-width="4" stroke-opacity="1" stroke-miterlimit="4"/></svg>