<svg xmlns="http://www.w3.org/2000/svg" xmlns:xlink="http://www.w3.org/1999/xlink" width="512" zoomAndPan="magnify" viewBox="0 0 384 383.999986" height="512" preserveAspectRatio="xMidYMid meet" version="1.0"><defs><clipPath id="050546c760"><path d="M 170.390625 315 L 216.828125 315 L 216.828125 383.949219 L 170.390625 383.949219 Z M 170.390625 315 " clip-rule="nonzero"/></clipPath><clipPath id="47b3946f8d"><path d="M 170.390625 314.835938 L 216.828125 314.835938 L 216.828125 383.949219 L 170.390625 383.949219 Z M 170.390625 314.835938 " clip-rule="nonzero"/></clipPath></defs><rect x="-38.4" width="460.8" fill="#ffffff" y="-38.399999" height="460.799983" fill-opacity="1"/><rect x="-38.4" width="460.8" fill="#ffffff" y="-38.399999" height="460.799983" fill-opacity="1"/><path fill="#22354d" d="M 369.796875 383.980469 C 310.914062 383.980469 252.082031 383.980469 193.25 383.980469 C 192.554688 383.980469 191.859375 383.980469 191.167969 383.980469 C 132.332031 383.980469 73.5 383.980469 14.617188 383.980469 C 13.335938 379.28125 13.652344 374.453125 14.246094 369.65625 C 15.167969 362.199219 17.445312 355.101562 20.46875 348.242188 C 24.050781 340.117188 30.578125 334.695312 37.6875 329.890625 C 50.628906 321.136719 64.996094 315.210938 79.320312 309.226562 C 89.621094 304.921875 99.992188 300.765625 110.261719 296.394531 C 139.382812 283.285156 143.261719 273.257812 143.703125 271.683594 C 143.914062 270.765625 144.066406 269.828125 144.160156 268.871094 C 144.363281 266.6875 144.53125 264.503906 144.675781 262.3125 L 144.675781 256.640625 C 81.742188 257.199219 63.199219 230.226562 63.199219 230.226562 C 63.199219 230.226562 99.164062 229.671875 96.9375 134.75 C 94.710938 39.828125 138.46875 24.152344 154.785156 17.945312 C 202.28125 -0.113281 226.152344 28.609375 226.152344 28.609375 C 281.210938 23.515625 296.40625 83.664062 289.640625 152.167969 C 282.875 220.675781 320.507812 231.332031 320.507812 231.332031 C 294.652344 257.746094 240.148438 256.074219 240.148438 256.074219 L 240.148438 267.714844 C 240.183594 268.09375 240.210938 268.476562 240.25 268.859375 C 240.339844 269.808594 240.492188 270.75 240.703125 271.671875 C 241.148438 273.25 245.023438 283.277344 274.144531 296.382812 C 284.414062 300.753906 294.785156 304.914062 305.085938 309.210938 C 319.417969 315.195312 333.777344 321.121094 346.722656 329.878906 C 353.828125 334.6875 360.355469 340.105469 363.9375 348.230469 C 366.960938 355.085938 369.238281 362.183594 370.160156 369.640625 C 370.765625 374.449219 371.082031 379.28125 369.796875 383.980469 Z M 369.796875 383.980469 " fill-opacity="1" fill-rule="nonzero"/><g clip-path="url(#050546c760)"><path fill="#ffffff" d="M 189.011719 315.0625 L 189.011719 333.367188 L 170.621094 333.367188 L 170.621094 342.523438 L 189.011719 342.523438 L 189.011719 383.714844 L 198.207031 383.714844 L 198.207031 342.523438 L 216.597656 342.523438 L 216.597656 333.367188 L 198.207031 333.367188 L 198.207031 315.0625 Z M 189.011719 315.0625 " fill-opacity="1" fill-rule="nonzero"/></g><g clip-path="url(#47b3946f8d)"><path stroke-linecap="butt" transform="matrix(0.0919532, 0, 0, 0.0915409, 164.873226, 306.47898)" fill="none" stroke-linejoin="miter" d="M 262.508521 93.767019 L 262.508521 293.728796 L 62.508635 293.728796 L 62.508635 393.752357 L 262.508521 393.752357 L 262.508521 843.730366 L 362.508464 843.730366 L 362.508464 393.752357 L 562.508349 393.752357 L 562.508349 293.728796 L 362.508464 293.728796 L 362.508464 93.767019 Z M 262.508521 93.767019 " stroke="#000000" stroke-width="5" stroke-opacity="1" stroke-miterlimit="4"/></g><path stroke-linecap="butt" transform="matrix(1.079879, 0.00882374, -0.00882374, 1.079879, 142.03838, 275.059958)" fill="none" stroke-linejoin="miter" d="M 1.644962 1.139215 C 31.488963 44.234264 61.3317 44.232777 91.176817 1.138341 " stroke="#ffffff" stroke-width="4" stroke-opacity="1" stroke-miterlimit="4"/></svg>