<svg xmlns="http://www.w3.org/2000/svg" xmlns:xlink="http://www.w3.org/1999/xlink" width="512" zoomAndPan="magnify" viewBox="0 0 384 383.999986" height="512" preserveAspectRatio="xMidYMid meet" version="1.0"><defs><clipPath id="68be289520"><path d="M 120 80.855469 L 268 80.855469 L 268 229 L 120 229 Z M 120 80.855469 " clip-rule="nonzero"/></clipPath><clipPath id="b981bea1b1"><path d="M 5.066406 260 L 95 260 L 95 332 L 5.066406 332 Z M 5.066406 260 " clip-rule="nonzero"/></clipPath><clipPath id="b173b8c8af"><path d="M 293 260 L 383.816406 260 L 383.816406 332 L 293 332 Z M 293 260 " clip-rule="nonzero"/></clipPath><clipPath id="96dd78363f"><path d="M 172.355469 279.277344 L 216.605469 279.277344 L 216.605469 345.277344 L 172.355469 345.277344 Z M 172.355469 279.277344 " clip-rule="nonzero"/></clipPath><clipPath id="79d6d55e97"><path d="M 60.675781 289.878906 L 70.425781 289.878906 L 70.425781 304.128906 L 60.675781 304.128906 Z M 60.675781 289.878906 " clip-rule="nonzero"/></clipPath><clipPath id="216fb04f77"><path d="M 312 289.878906 L 321.710938 289.878906 L 321.710938 304.128906 L 312 304.128906 Z M 312 289.878906 " clip-rule="nonzero"/></clipPath><clipPath id="1330be8178"><path d="M 311.960938 289.878906 L 321.710938 289.878906 L 321.710938 304.128906 L 311.960938 304.128906 Z M 311.960938 289.878906 " clip-rule="nonzero"/></clipPath></defs><rect x="-38.4" width="460.8" fill="#ffffff" y="-38.399999" height="460.799983" fill-opacity="1"/><rect x="-38.4" width="460.8" fill="#ffffff" y="-38.399999" height="460.799983" fill-opacity="1"/><g clip-path="url(#68be289520)"><path fill="#22354d" d="M 267.746094 154.710938 C 267.746094 155.921875 267.71875 157.128906 267.65625 158.335938 C 267.597656 159.542969 267.507812 160.75 267.390625 161.953125 C 267.273438 163.15625 267.125 164.355469 266.949219 165.550781 C 266.769531 166.746094 266.5625 167.9375 266.328125 169.121094 C 266.089844 170.308594 265.828125 171.484375 265.535156 172.660156 C 265.238281 173.832031 264.917969 174.996094 264.566406 176.152344 C 264.214844 177.308594 263.835938 178.457031 263.429688 179.59375 C 263.023438 180.734375 262.585938 181.859375 262.125 182.976562 C 261.660156 184.09375 261.171875 185.199219 260.65625 186.289062 C 260.136719 187.382812 259.59375 188.464844 259.027344 189.527344 C 258.457031 190.59375 257.859375 191.648438 257.238281 192.683594 C 256.617188 193.71875 255.972656 194.742188 255.300781 195.746094 C 254.628906 196.75 253.933594 197.738281 253.210938 198.710938 C 252.492188 199.679688 251.75 200.632812 250.980469 201.566406 C 250.214844 202.503906 249.425781 203.417969 248.613281 204.3125 C 247.800781 205.207031 246.96875 206.082031 246.113281 206.9375 C 245.257812 207.792969 244.382812 208.625 243.488281 209.4375 C 242.59375 210.25 241.679688 211.039062 240.742188 211.804688 C 239.808594 212.574219 238.855469 213.316406 237.886719 214.035156 C 236.914062 214.757812 235.925781 215.453125 234.921875 216.125 C 233.917969 216.796875 232.894531 217.441406 231.859375 218.0625 C 230.824219 218.683594 229.769531 219.28125 228.703125 219.851562 C 227.640625 220.417969 226.558594 220.964844 225.46875 221.480469 C 224.375 221.996094 223.269531 222.484375 222.152344 222.949219 C 221.035156 223.410156 219.910156 223.847656 218.769531 224.253906 C 217.632812 224.660156 216.484375 225.039062 215.328125 225.390625 C 214.171875 225.742188 213.007812 226.0625 211.835938 226.359375 C 210.660156 226.652344 209.484375 226.914062 208.296875 227.152344 C 207.113281 227.386719 205.921875 227.59375 204.726562 227.773438 C 203.53125 227.949219 202.332031 228.097656 201.128906 228.214844 C 199.925781 228.332031 198.71875 228.421875 197.511719 228.480469 C 196.304688 228.542969 195.097656 228.570312 193.886719 228.570312 C 192.679688 228.570312 191.472656 228.542969 190.265625 228.480469 C 189.058594 228.421875 187.851562 228.332031 186.648438 228.214844 C 185.445312 228.097656 184.246094 227.949219 183.050781 227.769531 C 181.855469 227.59375 180.664062 227.386719 179.480469 227.152344 C 178.292969 226.914062 177.113281 226.652344 175.941406 226.359375 C 174.769531 226.0625 173.605469 225.742188 172.449219 225.390625 C 171.292969 225.039062 170.144531 224.660156 169.007812 224.253906 C 167.867188 223.847656 166.742188 223.410156 165.625 222.949219 C 164.507812 222.484375 163.402344 221.996094 162.308594 221.480469 C 161.21875 220.964844 160.136719 220.417969 159.070312 219.851562 C 158.003906 219.28125 156.953125 218.683594 155.917969 218.0625 C 154.878906 217.441406 153.859375 216.796875 152.855469 216.125 C 151.851562 215.453125 150.863281 214.757812 149.890625 214.035156 C 148.921875 213.316406 147.96875 212.574219 147.03125 211.804688 C 146.097656 211.039062 145.183594 210.25 144.289062 209.4375 C 143.390625 208.625 142.515625 207.792969 141.664062 206.9375 C 140.808594 206.082031 139.972656 205.207031 139.164062 204.3125 C 138.351562 203.417969 137.5625 202.503906 136.796875 201.566406 C 136.027344 200.632812 135.285156 199.679688 134.566406 198.710938 C 133.84375 197.738281 133.148438 196.75 132.476562 195.746094 C 131.804688 194.742188 131.160156 193.71875 130.539062 192.683594 C 129.917969 191.648438 129.320312 190.59375 128.75 189.527344 C 128.179688 188.464844 127.636719 187.382812 127.121094 186.289062 C 126.605469 185.199219 126.113281 184.09375 125.652344 182.976562 C 125.191406 181.859375 124.753906 180.734375 124.347656 179.59375 C 123.941406 178.457031 123.5625 177.308594 123.210938 176.152344 C 122.859375 174.996094 122.535156 173.832031 122.242188 172.660156 C 121.949219 171.484375 121.683594 170.308594 121.449219 169.121094 C 121.214844 167.9375 121.007812 166.746094 120.828125 165.550781 C 120.652344 164.355469 120.503906 163.15625 120.386719 161.953125 C 120.265625 160.75 120.179688 159.542969 120.117188 158.335938 C 120.058594 157.128906 120.03125 155.921875 120.03125 154.710938 C 120.03125 153.503906 120.058594 152.296875 120.117188 151.089844 C 120.179688 149.882812 120.265625 148.675781 120.386719 147.472656 C 120.503906 146.269531 120.652344 145.070312 120.828125 143.875 C 121.007812 142.679688 121.214844 141.488281 121.449219 140.304688 C 121.683594 139.117188 121.949219 137.9375 122.242188 136.765625 C 122.535156 135.59375 122.859375 134.429688 123.210938 133.273438 C 123.5625 132.117188 123.941406 130.96875 124.347656 129.832031 C 124.753906 128.691406 125.191406 127.566406 125.652344 126.449219 C 126.113281 125.332031 126.605469 124.226562 127.121094 123.132812 C 127.636719 122.042969 128.179688 120.960938 128.75 119.894531 C 129.320312 118.828125 129.917969 117.777344 130.539062 116.742188 C 131.160156 115.703125 131.804688 114.683594 132.476562 113.679688 C 133.148438 112.675781 133.84375 111.6875 134.566406 110.714844 C 135.285156 109.746094 136.027344 108.792969 136.796875 107.855469 C 137.5625 106.921875 138.351562 106.007812 139.164062 105.113281 C 139.972656 104.214844 140.808594 103.339844 141.664062 102.488281 C 142.515625 101.632812 143.390625 100.796875 144.289062 99.988281 C 145.183594 99.175781 146.097656 98.386719 147.03125 97.621094 C 147.96875 96.851562 148.921875 96.109375 149.890625 95.390625 C 150.863281 94.667969 151.851562 93.972656 152.855469 93.300781 C 153.859375 92.628906 154.878906 91.984375 155.917969 91.363281 C 156.953125 90.742188 158.003906 90.144531 159.070312 89.574219 C 160.136719 89.003906 161.21875 88.460938 162.308594 87.945312 C 163.402344 87.429688 164.507812 86.9375 165.625 86.476562 C 166.742188 86.011719 167.867188 85.578125 169.007812 85.171875 C 170.144531 84.765625 171.292969 84.386719 172.449219 84.035156 C 173.605469 83.683594 174.769531 83.359375 175.941406 83.066406 C 177.113281 82.773438 178.292969 82.507812 179.480469 82.273438 C 180.664062 82.039062 181.855469 81.832031 183.050781 81.652344 C 184.246094 81.476562 185.445312 81.328125 186.648438 81.210938 C 187.851562 81.089844 189.058594 81.003906 190.265625 80.941406 C 191.472656 80.882812 192.679688 80.855469 193.886719 80.855469 C 195.097656 80.855469 196.304688 80.882812 197.511719 80.941406 C 198.71875 81.003906 199.925781 81.089844 201.128906 81.210938 C 202.332031 81.328125 203.53125 81.476562 204.726562 81.652344 C 205.921875 81.832031 207.113281 82.039062 208.296875 82.273438 C 209.484375 82.507812 210.660156 82.773438 211.835938 83.066406 C 213.007812 83.359375 214.171875 83.683594 215.328125 84.035156 C 216.484375 84.386719 217.632812 84.765625 218.769531 85.171875 C 219.910156 85.578125 221.035156 86.011719 222.152344 86.476562 C 223.269531 86.9375 224.375 87.429688 225.46875 87.945312 C 226.558594 88.460938 227.640625 89.003906 228.703125 89.574219 C 229.769531 90.144531 230.824219 90.742188 231.859375 91.363281 C 232.894531 91.984375 233.917969 92.628906 234.921875 93.300781 C 235.925781 93.972656 236.914062 94.667969 237.886719 95.390625 C 238.855469 96.109375 239.808594 96.851562 240.742188 97.621094 C 241.679688 98.386719 242.59375 99.175781 243.488281 99.988281 C 244.382812 100.796875 245.257812 101.632812 246.113281 102.488281 C 246.96875 103.339844 247.800781 104.214844 248.613281 105.113281 C 249.425781 106.007812 250.214844 106.921875 250.980469 107.855469 C 251.75 108.792969 252.492188 109.746094 253.210938 110.714844 C 253.933594 111.6875 254.628906 112.675781 255.300781 113.679688 C 255.972656 114.683594 256.617188 115.703125 257.238281 116.742188 C 257.859375 117.777344 258.457031 118.828125 259.027344 119.894531 C 259.59375 120.960938 260.136719 122.042969 260.65625 123.132812 C 261.171875 124.226562 261.660156 125.332031 262.125 126.449219 C 262.585938 127.566406 263.023438 128.691406 263.429688 129.832031 C 263.835938 130.96875 264.214844 132.117188 264.566406 133.273438 C 264.917969 134.429688 265.238281 135.59375 265.535156 136.765625 C 265.828125 137.9375 266.089844 139.117188 266.328125 140.304688 C 266.5625 141.488281 266.769531 142.679688 266.949219 143.875 C 267.125 145.070312 267.273438 146.269531 267.390625 147.472656 C 267.507812 148.675781 267.597656 149.882812 267.65625 151.089844 C 267.71875 152.296875 267.746094 153.503906 267.746094 154.710938 Z M 267.746094 154.710938 " fill-opacity="1" fill-rule="nonzero"/></g><path fill="#22354d" d="M 113.609375 193.246094 C 113.609375 194.824219 113.53125 196.398438 113.375 197.96875 C 113.222656 199.539062 112.988281 201.097656 112.683594 202.644531 C 112.375 204.191406 111.992188 205.71875 111.535156 207.230469 C 111.074219 208.738281 110.542969 210.222656 109.941406 211.679688 C 109.335938 213.136719 108.664062 214.5625 107.917969 215.953125 C 107.175781 217.34375 106.367188 218.695312 105.488281 220.007812 C 104.613281 221.320312 103.675781 222.585938 102.671875 223.804688 C 101.671875 225.023438 100.613281 226.191406 99.5 227.308594 C 98.382812 228.421875 97.214844 229.480469 95.996094 230.480469 C 94.777344 231.484375 93.511719 232.421875 92.199219 233.296875 C 90.886719 234.175781 89.535156 234.984375 88.144531 235.726562 C 86.753906 236.472656 85.328125 237.144531 83.871094 237.75 C 82.414062 238.351562 80.929688 238.882812 79.421875 239.339844 C 77.910156 239.800781 76.382812 240.183594 74.835938 240.492188 C 73.289062 240.796875 71.730469 241.027344 70.160156 241.183594 C 68.589844 241.339844 67.015625 241.414062 65.4375 241.414062 C 63.863281 241.414062 62.289062 241.339844 60.71875 241.183594 C 59.148438 241.03125 57.589844 240.796875 56.042969 240.492188 C 54.496094 240.183594 52.964844 239.800781 51.457031 239.339844 C 49.945312 238.882812 48.464844 238.351562 47.003906 237.75 C 45.546875 237.144531 44.125 236.472656 42.734375 235.726562 C 41.339844 234.984375 39.988281 234.175781 38.679688 233.296875 C 37.367188 232.421875 36.101562 231.484375 34.882812 230.480469 C 33.660156 229.480469 32.496094 228.421875 31.378906 227.308594 C 30.261719 226.191406 29.203125 225.023438 28.203125 223.804688 C 27.203125 222.585938 26.265625 221.320312 25.386719 220.007812 C 24.511719 218.695312 23.703125 217.34375 22.957031 215.953125 C 22.214844 214.5625 21.539062 213.136719 20.9375 211.679688 C 20.332031 210.222656 19.800781 208.738281 19.34375 207.230469 C 18.886719 205.71875 18.503906 204.191406 18.195312 202.644531 C 17.886719 201.097656 17.65625 199.539062 17.503906 197.96875 C 17.347656 196.398438 17.269531 194.824219 17.269531 193.246094 C 17.269531 191.667969 17.347656 190.097656 17.503906 188.527344 C 17.65625 186.957031 17.886719 185.398438 18.195312 183.851562 C 18.503906 182.304688 18.886719 180.773438 19.34375 179.265625 C 19.800781 177.753906 20.332031 176.273438 20.9375 174.8125 C 21.539062 173.355469 22.214844 171.933594 22.957031 170.539062 C 23.703125 169.148438 24.511719 167.796875 25.386719 166.484375 C 26.265625 165.175781 27.203125 163.910156 28.203125 162.691406 C 29.203125 161.46875 30.261719 160.300781 31.378906 159.1875 C 32.496094 158.070312 33.660156 157.011719 34.882812 156.011719 C 36.101562 155.011719 37.367188 154.074219 38.679688 153.195312 C 39.988281 152.320312 41.339844 151.511719 42.734375 150.765625 C 44.125 150.023438 45.546875 149.347656 47.003906 148.746094 C 48.464844 148.140625 49.945312 147.609375 51.457031 147.152344 C 52.964844 146.695312 54.496094 146.3125 56.042969 146.003906 C 57.589844 145.695312 59.148438 145.464844 60.71875 145.3125 C 62.289062 145.15625 63.863281 145.078125 65.4375 145.078125 C 67.015625 145.078125 68.589844 145.15625 70.160156 145.3125 C 71.730469 145.464844 73.289062 145.695312 74.835938 146.003906 C 76.382812 146.3125 77.910156 146.695312 79.421875 147.152344 C 80.929688 147.609375 82.414062 148.140625 83.871094 148.746094 C 85.328125 149.347656 86.753906 150.023438 88.144531 150.765625 C 89.535156 151.511719 90.886719 152.320312 92.199219 153.195312 C 93.511719 154.074219 94.777344 155.011719 95.996094 156.011719 C 97.214844 157.011719 98.382812 158.070312 99.5 159.1875 C 100.613281 160.300781 101.671875 161.46875 102.671875 162.691406 C 103.675781 163.910156 104.613281 165.175781 105.488281 166.484375 C 106.367188 167.796875 107.175781 169.148438 107.917969 170.539062 C 108.664062 171.933594 109.335938 173.355469 109.941406 174.8125 C 110.542969 176.273438 111.074219 177.753906 111.535156 179.265625 C 111.992188 180.773438 112.375 182.304688 112.683594 183.851562 C 112.988281 185.398438 113.222656 186.957031 113.375 188.527344 C 113.53125 190.097656 113.609375 191.667969 113.609375 193.246094 Z M 113.609375 193.246094 " fill-opacity="1" fill-rule="nonzero"/><path fill="#22354d" d="M 370.507812 193.246094 C 370.507812 194.824219 370.429688 196.398438 370.273438 197.96875 C 370.121094 199.539062 369.886719 201.097656 369.582031 202.644531 C 369.273438 204.191406 368.890625 205.71875 368.433594 207.230469 C 367.972656 208.738281 367.445312 210.222656 366.839844 211.679688 C 366.234375 213.136719 365.5625 214.5625 364.820312 215.953125 C 364.074219 217.34375 363.265625 218.695312 362.386719 220.007812 C 361.511719 221.320312 360.574219 222.585938 359.574219 223.804688 C 358.570312 225.023438 357.511719 226.191406 356.398438 227.308594 C 355.28125 228.421875 354.113281 229.480469 352.894531 230.480469 C 351.675781 231.484375 350.410156 232.421875 349.097656 233.296875 C 347.785156 234.175781 346.433594 234.984375 345.042969 235.726562 C 343.652344 236.472656 342.230469 237.144531 340.769531 237.75 C 339.3125 238.351562 337.828125 238.882812 336.320312 239.339844 C 334.8125 239.800781 333.28125 240.183594 331.734375 240.492188 C 330.1875 240.796875 328.628906 241.027344 327.058594 241.183594 C 325.488281 241.339844 323.914062 241.414062 322.335938 241.414062 C 320.761719 241.414062 319.1875 241.339844 317.617188 241.183594 C 316.046875 241.03125 314.488281 240.796875 312.941406 240.492188 C 311.394531 240.183594 309.863281 239.800781 308.355469 239.339844 C 306.84375 238.882812 305.363281 238.351562 303.90625 237.75 C 302.445312 237.144531 301.023438 236.472656 299.632812 235.726562 C 298.238281 234.984375 296.886719 234.175781 295.578125 233.296875 C 294.265625 232.421875 293 231.484375 291.78125 230.480469 C 290.558594 229.480469 289.394531 228.421875 288.277344 227.308594 C 287.160156 226.191406 286.105469 225.023438 285.101562 223.804688 C 284.101562 222.585938 283.164062 221.320312 282.285156 220.007812 C 281.410156 218.695312 280.601562 217.34375 279.855469 215.953125 C 279.113281 214.5625 278.441406 213.136719 277.835938 211.679688 C 277.230469 210.222656 276.703125 208.738281 276.242188 207.230469 C 275.785156 205.71875 275.402344 204.191406 275.09375 202.644531 C 274.785156 201.097656 274.554688 199.539062 274.402344 197.96875 C 274.246094 196.398438 274.167969 194.824219 274.167969 193.246094 C 274.167969 191.667969 274.246094 190.097656 274.402344 188.527344 C 274.554688 186.957031 274.785156 185.398438 275.09375 183.851562 C 275.402344 182.304688 275.785156 180.773438 276.242188 179.265625 C 276.703125 177.753906 277.230469 176.273438 277.835938 174.8125 C 278.441406 173.355469 279.113281 171.933594 279.855469 170.539062 C 280.601562 169.148438 281.410156 167.796875 282.285156 166.484375 C 283.164062 165.175781 284.101562 163.910156 285.101562 162.691406 C 286.105469 161.46875 287.160156 160.300781 288.277344 159.1875 C 289.394531 158.070312 290.558594 157.011719 291.78125 156.011719 C 293 155.011719 294.265625 154.074219 295.578125 153.195312 C 296.886719 152.320312 298.238281 151.511719 299.632812 150.765625 C 301.023438 150.023438 302.445312 149.347656 303.90625 148.746094 C 305.363281 148.140625 306.84375 147.609375 308.355469 147.152344 C 309.863281 146.695312 311.394531 146.3125 312.941406 146.003906 C 314.488281 145.695312 316.046875 145.464844 317.617188 145.3125 C 319.1875 145.15625 320.761719 145.078125 322.335938 145.078125 C 323.914062 145.078125 325.488281 145.15625 327.058594 145.3125 C 328.628906 145.464844 330.1875 145.695312 331.734375 146.003906 C 333.28125 146.3125 334.8125 146.695312 336.320312 147.152344 C 337.828125 147.609375 339.3125 148.140625 340.769531 148.746094 C 342.230469 149.347656 343.652344 150.023438 345.042969 150.765625 C 346.433594 151.511719 347.785156 152.320312 349.097656 153.195312 C 350.410156 154.074219 351.675781 155.011719 352.894531 156.011719 C 354.113281 157.011719 355.28125 158.070312 356.398438 159.1875 C 357.511719 160.300781 358.570312 161.46875 359.574219 162.691406 C 360.574219 163.910156 361.511719 165.175781 362.386719 166.484375 C 363.265625 167.796875 364.074219 169.148438 364.820312 170.539062 C 365.5625 171.933594 366.234375 173.355469 366.839844 174.8125 C 367.445312 176.273438 367.972656 177.753906 368.433594 179.265625 C 368.890625 180.773438 369.273438 182.304688 369.582031 183.851562 C 369.886719 185.398438 370.121094 186.957031 370.273438 188.527344 C 370.429688 190.097656 370.507812 191.667969 370.507812 193.246094 Z M 370.507812 193.246094 " fill-opacity="1" fill-rule="nonzero"/><path fill="#22354d" d="M 316.613281 347.996094 C 316.253906 346.246094 315.859375 344.503906 315.425781 342.769531 C 314.992188 341.035156 314.523438 339.3125 314.015625 337.601562 C 313.511719 335.886719 312.96875 334.183594 312.386719 332.496094 C 311.808594 330.804688 311.195312 329.128906 310.542969 327.464844 C 309.890625 325.800781 309.207031 324.152344 308.484375 322.515625 C 307.761719 320.882812 307.007812 319.261719 306.214844 317.660156 C 305.425781 316.058594 304.601562 314.476562 303.742188 312.910156 C 302.882812 311.339844 301.992188 309.792969 301.066406 308.265625 C 300.144531 306.738281 299.1875 305.226562 298.195312 303.742188 C 297.207031 302.253906 296.1875 300.785156 295.132812 299.34375 C 294.082031 297.898438 293 296.476562 291.886719 295.082031 C 290.773438 293.683594 289.632812 292.308594 288.460938 290.960938 C 287.289062 289.613281 286.089844 288.289062 284.859375 286.992188 C 283.632812 285.695312 282.378906 284.421875 281.09375 283.179688 C 279.8125 281.933594 278.503906 280.71875 277.167969 279.53125 C 275.835938 278.34375 274.476562 277.183594 273.089844 276.054688 C 271.707031 274.925781 270.300781 273.828125 268.867188 272.757812 C 267.4375 271.6875 265.984375 270.648438 264.507812 269.640625 C 263.03125 268.636719 261.535156 267.660156 260.019531 266.714844 C 258.5 265.773438 256.964844 264.863281 255.410156 263.984375 C 253.851562 263.109375 252.277344 262.265625 250.683594 261.453125 C 249.09375 260.644531 247.484375 259.867188 245.859375 259.128906 C 244.234375 258.386719 242.59375 257.679688 240.9375 257.007812 C 239.28125 256.335938 237.609375 255.703125 235.929688 255.101562 C 234.246094 254.503906 232.550781 253.941406 230.84375 253.414062 C 229.136719 252.886719 227.417969 252.394531 225.691406 251.941406 C 223.960938 251.488281 222.226562 251.070312 220.480469 250.691406 C 218.734375 250.3125 216.980469 249.972656 215.21875 249.667969 C 213.460938 249.363281 211.691406 249.097656 209.921875 248.867188 C 208.148438 248.640625 206.375 248.449219 204.59375 248.296875 C 202.8125 248.144531 201.03125 248.027344 199.246094 247.953125 C 197.460938 247.875 195.675781 247.839844 193.886719 247.835938 C 192.101562 247.839844 190.316406 247.875 188.53125 247.953125 C 186.746094 248.027344 184.964844 248.144531 183.183594 248.296875 C 181.402344 248.449219 179.628906 248.640625 177.855469 248.867188 C 176.082031 249.097656 174.316406 249.363281 172.558594 249.667969 C 170.796875 249.972656 169.042969 250.3125 167.296875 250.691406 C 165.550781 251.070312 163.816406 251.488281 162.085938 251.941406 C 160.359375 252.394531 158.640625 252.886719 156.933594 253.414062 C 155.226562 253.941406 153.53125 254.503906 151.847656 255.101562 C 150.164062 255.703125 148.496094 256.335938 146.839844 257.007812 C 145.183594 257.679688 143.542969 258.386719 141.917969 259.128906 C 140.292969 259.867188 138.683594 260.644531 137.089844 261.453125 C 135.5 262.265625 133.925781 263.109375 132.367188 263.984375 C 130.8125 264.863281 129.273438 265.773438 127.757812 266.714844 C 126.242188 267.660156 124.742188 268.636719 123.269531 269.640625 C 121.792969 270.648438 120.339844 271.6875 118.910156 272.757812 C 117.476562 273.828125 116.070312 274.925781 114.683594 276.054688 C 113.300781 277.183594 111.941406 278.34375 110.605469 279.53125 C 109.273438 280.71875 107.964844 281.933594 106.679688 283.179688 C 105.398438 284.421875 104.144531 285.695312 102.914062 286.992188 C 101.6875 288.289062 100.488281 289.613281 99.316406 290.960938 C 98.144531 292.308594 97.003906 293.683594 95.890625 295.082031 C 94.777344 296.476562 93.695312 297.898438 92.640625 299.34375 C 91.589844 300.785156 90.570312 302.253906 89.582031 303.742188 C 88.589844 305.226562 87.632812 306.738281 86.710938 308.265625 C 85.785156 309.792969 84.894531 311.339844 84.035156 312.910156 C 83.175781 314.476562 82.351562 316.058594 81.558594 317.660156 C 80.769531 319.261719 80.011719 320.882812 79.292969 322.515625 C 78.570312 324.152344 77.882812 325.800781 77.234375 327.464844 C 76.582031 329.128906 75.96875 330.804688 75.386719 332.496094 C 74.808594 334.183594 74.265625 335.886719 73.761719 337.601562 C 73.253906 339.3125 72.785156 341.035156 72.351562 342.769531 C 71.917969 344.503906 71.523438 346.246094 71.164062 347.996094 C 70.96875 349.042969 70.824219 350.097656 70.742188 351.160156 C 70.660156 352.222656 70.632812 353.285156 70.667969 354.351562 C 70.699219 355.417969 70.792969 356.476562 70.941406 357.53125 C 71.089844 358.585938 71.296875 359.632812 71.558594 360.664062 C 71.820312 361.695312 72.140625 362.710938 72.511719 363.710938 C 72.886719 364.707031 73.3125 365.683594 73.792969 366.632812 C 74.273438 367.585938 74.804688 368.507812 75.386719 369.402344 C 75.96875 370.292969 76.59375 371.152344 77.269531 371.980469 C 77.945312 372.804688 78.664062 373.589844 79.421875 374.335938 C 80.183594 375.082031 80.984375 375.785156 81.820312 376.445312 C 82.660156 377.101562 83.527344 377.714844 84.433594 378.277344 C 85.335938 378.84375 86.269531 379.355469 87.230469 379.816406 C 88.191406 380.28125 89.171875 380.6875 90.179688 381.042969 C 91.183594 381.398438 92.203125 381.695312 93.242188 381.941406 C 94.28125 382.183594 95.328125 382.367188 96.386719 382.496094 C 97.441406 382.625 98.503906 382.699219 99.570312 382.710938 L 288.207031 382.710938 C 289.273438 382.699219 290.335938 382.628906 291.394531 382.5 C 292.453125 382.375 293.5 382.1875 294.539062 381.945312 C 295.574219 381.703125 296.597656 381.40625 297.601562 381.050781 C 298.609375 380.695312 299.59375 380.289062 300.554688 379.828125 C 301.515625 379.367188 302.445312 378.851562 303.351562 378.289062 C 304.257812 377.726562 305.128906 377.113281 305.964844 376.453125 C 306.804688 375.796875 307.601562 375.09375 308.363281 374.347656 C 309.125 373.597656 309.84375 372.8125 310.519531 371.988281 C 311.195312 371.164062 311.820312 370.304688 312.402344 369.410156 C 312.984375 368.515625 313.515625 367.59375 313.996094 366.640625 C 314.476562 365.691406 314.902344 364.714844 315.277344 363.714844 C 315.648438 362.71875 315.96875 361.703125 316.230469 360.667969 C 316.492188 359.636719 316.695312 358.589844 316.84375 357.535156 C 316.992188 356.480469 317.082031 355.417969 317.117188 354.351562 C 317.148438 353.289062 317.121094 352.222656 317.039062 351.160156 C 316.953125 350.097656 316.8125 349.042969 316.613281 347.996094 Z M 316.613281 347.996094 " fill-opacity="1" fill-rule="nonzero"/><g clip-path="url(#b981bea1b1)"><path fill="#22354d" d="M 94.726562 268.132812 C 90.152344 272.433594 85.882812 277.011719 81.910156 281.871094 C 77.9375 286.730469 74.296875 291.828125 70.988281 297.160156 C 67.683594 302.496094 64.738281 308.023438 62.152344 313.742188 C 59.566406 319.460938 57.367188 325.324219 55.546875 331.332031 L 14.058594 331.332031 C 13.429688 331.324219 12.804688 331.261719 12.183594 331.132812 C 11.566406 331.007812 10.964844 330.820312 10.382812 330.578125 C 9.800781 330.335938 9.246094 330.035156 8.722656 329.683594 C 8.199219 329.332031 7.714844 328.933594 7.265625 328.488281 C 6.820312 328.042969 6.421875 327.554688 6.070312 327.03125 C 5.71875 326.507812 5.421875 325.953125 5.175781 325.371094 C 4.933594 324.789062 4.75 324.191406 4.621094 323.570312 C 4.496094 322.953125 4.429688 322.328125 4.425781 321.695312 C 4.425781 320.378906 4.46875 319.066406 4.554688 317.75 C 4.644531 316.4375 4.769531 315.128906 4.941406 313.820312 C 5.113281 312.515625 5.328125 311.21875 5.582031 309.925781 C 5.835938 308.632812 6.132812 307.351562 6.46875 306.078125 C 6.808594 304.808594 7.1875 303.546875 7.605469 302.300781 C 8.027344 301.050781 8.484375 299.816406 8.984375 298.597656 C 9.484375 297.382812 10.019531 296.179688 10.597656 294.996094 C 11.175781 293.8125 11.789062 292.648438 12.441406 291.503906 C 13.09375 290.363281 13.78125 289.238281 14.507812 288.140625 C 15.230469 287.042969 15.992188 285.96875 16.785156 284.917969 C 17.578125 283.867188 18.40625 282.84375 19.265625 281.847656 C 20.128906 280.851562 21.019531 279.882812 21.941406 278.941406 C 22.863281 278.003906 23.816406 277.097656 24.796875 276.21875 C 25.78125 275.339844 26.789062 274.496094 27.824219 273.683594 C 28.863281 272.871094 29.921875 272.09375 31.011719 271.351562 C 32.097656 270.605469 33.207031 269.898438 34.339844 269.226562 C 35.472656 268.554688 36.625 267.921875 37.796875 267.324219 C 38.972656 266.726562 40.164062 266.167969 41.371094 265.648438 C 42.582031 265.128906 43.804688 264.648438 45.046875 264.207031 C 46.289062 263.765625 47.542969 263.367188 48.808594 263.007812 C 50.074219 262.648438 51.351562 262.328125 52.636719 262.050781 C 53.925781 261.773438 55.21875 261.539062 56.523438 261.34375 C 57.824219 261.152344 59.132812 261 60.445312 260.890625 C 61.757812 260.78125 63.070312 260.714844 64.386719 260.691406 C 65.703125 260.667969 67.019531 260.6875 68.335938 260.75 C 69.648438 260.808594 70.960938 260.914062 72.269531 261.058594 C 73.578125 261.207031 74.882812 261.394531 76.175781 261.625 C 77.472656 261.855469 78.761719 262.125 80.039062 262.441406 C 81.320312 262.753906 82.585938 263.109375 83.84375 263.503906 C 85.097656 263.898438 86.339844 264.335938 87.566406 264.8125 C 88.792969 265.289062 90.003906 265.800781 91.199219 266.355469 C 92.394531 266.910156 93.570312 267.503906 94.726562 268.132812 Z M 94.726562 268.132812 " fill-opacity="1" fill-rule="nonzero"/></g><g clip-path="url(#b173b8c8af)"><path fill="#22354d" d="M 383.351562 321.695312 C 383.347656 322.328125 383.28125 322.953125 383.15625 323.570312 C 383.027344 324.191406 382.84375 324.789062 382.597656 325.371094 C 382.355469 325.953125 382.058594 326.507812 381.707031 327.03125 C 381.355469 327.558594 380.957031 328.042969 380.507812 328.488281 C 380.0625 328.933594 379.578125 329.332031 379.054688 329.683594 C 378.527344 330.035156 377.976562 330.335938 377.394531 330.578125 C 376.8125 330.820312 376.210938 331.007812 375.59375 331.132812 C 374.972656 331.261719 374.347656 331.324219 373.71875 331.332031 L 332.226562 331.332031 C 330.410156 325.324219 328.210938 319.460938 325.625 313.742188 C 323.039062 308.023438 320.09375 302.496094 316.789062 297.160156 C 313.480469 291.828125 309.839844 286.730469 305.867188 281.871094 C 301.894531 277.011719 297.621094 272.433594 293.050781 268.132812 C 294.207031 267.503906 295.382812 266.910156 296.578125 266.355469 C 297.769531 265.800781 298.980469 265.289062 300.210938 264.8125 C 301.4375 264.335938 302.679688 263.898438 303.933594 263.503906 C 305.191406 263.109375 306.457031 262.753906 307.738281 262.441406 C 309.015625 262.125 310.304688 261.855469 311.597656 261.625 C 312.894531 261.394531 314.199219 261.207031 315.507812 261.058594 C 316.816406 260.914062 318.125 260.808594 319.441406 260.75 C 320.757812 260.6875 322.074219 260.667969 323.390625 260.691406 C 324.707031 260.71875 326.019531 260.78125 327.332031 260.890625 C 328.644531 261 329.953125 261.152344 331.253906 261.34375 C 332.554688 261.539062 333.851562 261.773438 335.136719 262.050781 C 336.425781 262.328125 337.703125 262.648438 338.96875 263.007812 C 340.234375 263.367188 341.488281 263.765625 342.730469 264.207031 C 343.96875 264.648438 345.195312 265.128906 346.40625 265.648438 C 347.613281 266.167969 348.804688 266.726562 349.980469 267.324219 C 351.152344 267.921875 352.304688 268.554688 353.4375 269.226562 C 354.570312 269.898438 355.679688 270.609375 356.765625 271.351562 C 357.851562 272.09375 358.914062 272.871094 359.949219 273.683594 C 360.988281 274.496094 361.996094 275.339844 362.976562 276.21875 C 363.960938 277.097656 364.910156 278.003906 365.835938 278.941406 C 366.757812 279.882812 367.648438 280.851562 368.511719 281.847656 C 369.371094 282.84375 370.199219 283.867188 370.992188 284.917969 C 371.785156 285.96875 372.546875 287.042969 373.269531 288.140625 C 373.996094 289.242188 374.683594 290.363281 375.335938 291.503906 C 375.988281 292.648438 376.601562 293.8125 377.179688 294.996094 C 377.753906 296.179688 378.292969 297.382812 378.792969 298.597656 C 379.292969 299.816406 379.75 301.050781 380.171875 302.300781 C 380.589844 303.546875 380.96875 304.808594 381.304688 306.078125 C 381.644531 307.351562 381.941406 308.632812 382.195312 309.925781 C 382.449219 311.21875 382.664062 312.515625 382.835938 313.820312 C 383.003906 315.128906 383.132812 316.4375 383.21875 317.75 C 383.304688 319.066406 383.351562 320.378906 383.351562 321.695312 Z M 383.351562 321.695312 " fill-opacity="1" fill-rule="nonzero"/></g><g clip-path="url(#96dd78363f)"><path stroke-linecap="butt" transform="matrix(0.0876238, 0, 0, 0.0873904, 167.099804, 271.30873)" fill-opacity="1" fill="#ffffff" fill-rule="nonzero" stroke-linejoin="miter" d="M 262.505961 93.731873 L 262.505961 293.759101 L 62.520952 293.759101 L 62.520952 393.750365 L 262.505961 393.750365 L 262.505961 843.733404 L 362.498465 843.733404 L 362.498465 393.750365 L 562.483474 393.750365 L 562.483474 293.759101 L 362.498465 293.759101 L 362.498465 93.731873 Z M 262.505961 93.731873 " stroke="#000000" stroke-width="5" stroke-opacity="1" stroke-miterlimit="4"/></g><path stroke-linecap="butt" transform="matrix(0.75, 0, 0, 0.75, 129.630818, 251.21213)" fill="none" stroke-linejoin="miter" d="M 1.237035 1.571327 C 55.851622 44.665081 110.46621 44.665081 165.080798 1.571327 " stroke="#ffffff" stroke-width="4" stroke-opacity="1" stroke-miterlimit="4"/><path stroke-linecap="butt" transform="matrix(0.748955, 0.0395853, -0.0395853, 0.748955, 285.189126, 263.07783)" fill="none" stroke-linejoin="miter" d="M 1.716101 1.031046 C 27.636078 44.12409 53.552514 44.126004 79.475536 1.031035 " stroke="#ffffff" stroke-width="4" stroke-opacity="1" stroke-miterlimit="4"/><path stroke-linecap="butt" transform="matrix(0.748955, 0.0395853, -0.0395853, 0.748955, 34.412476, 262.37869)" fill="none" stroke-linejoin="miter" d="M 1.715172 1.030989 C 27.635148 44.124033 53.551584 44.125947 79.474607 1.030978 " stroke="#ffffff" stroke-width="4" stroke-opacity="1" stroke-miterlimit="4"/><g clip-path="url(#79d6d55e97)"><path stroke-linecap="butt" transform="matrix(0.0193069, 0, 0, 0.0188584, 59.516054, 288.161375)" fill-opacity="1" fill="#ffffff" fill-rule="nonzero" stroke-linejoin="miter" d="M 262.593944 93.76769 L 262.593944 293.653286 L 62.495784 293.653286 L 62.495784 393.699651 L 262.593944 393.699651 L 262.593944 843.804728 L 362.541861 843.804728 L 362.541861 393.699651 L 562.437697 393.699651 L 562.437697 293.653286 L 362.541861 293.653286 L 362.541861 93.76769 Z M 262.593944 93.76769 " stroke="#000000" stroke-width="5" stroke-opacity="1" stroke-miterlimit="4"/></g><g clip-path="url(#216fb04f77)"><path fill="#ffffff" d="M 315.871094 289.929688 L 315.871094 293.699219 L 312.011719 293.699219 L 312.011719 295.585938 L 315.871094 295.585938 L 315.871094 304.074219 L 317.804688 304.074219 L 317.804688 295.585938 L 321.664062 295.585938 L 321.664062 293.699219 L 317.804688 293.699219 L 317.804688 289.929688 Z M 315.871094 289.929688 " fill-opacity="1" fill-rule="nonzero"/></g><g clip-path="url(#1330be8178)"><path stroke-linecap="butt" transform="matrix(0.0193069, 0, 0, 0.0188584, 310.804377, 288.161375)" fill="none" stroke-linejoin="miter" d="M 262.429948 93.76769 L 262.429948 293.653286 L 62.534112 293.653286 L 62.534112 393.699651 L 262.429948 393.699651 L 262.429948 843.804728 L 362.580189 843.804728 L 362.580189 393.699651 L 562.476025 393.699651 L 562.476025 293.653286 L 362.580189 293.653286 L 362.580189 93.76769 Z M 262.429948 93.76769 " stroke="#000000" stroke-width="5" stroke-opacity="1" stroke-miterlimit="4"/></g></svg>