<svg xmlns="http://www.w3.org/2000/svg" xmlns:xlink="http://www.w3.org/1999/xlink" width="512" zoomAndPan="magnify" viewBox="0 0 384 383.999986" height="512" preserveAspectRatio="xMidYMid meet" version="1.0"><defs><clipPath id="a8777b7f96"><path d="M 40.097656 3 L 343.847656 3 L 343.847656 384 L 40.097656 384 Z M 40.097656 3 " clip-rule="nonzero"/></clipPath></defs><rect x="-38.4" width="460.8" fill="#ffffff" y="-38.399999" height="460.799983" fill-opacity="1"/><rect x="-38.4" width="460.8" fill="#ffffff" y="-38.399999" height="460.799983" fill-opacity="1"/><g clip-path="url(#a8777b7f96)"><path fill="#22354d" d="M 334.285156 320.652344 C 336.347656 320.613281 338.457031 320.621094 340.609375 320.695312 C 341.570312 320.710938 342.476562 320.304688 343.078125 319.558594 C 343.675781 318.8125 343.886719 317.832031 343.648438 316.902344 C 335.8125 286.453125 317.878906 242.996094 276.945312 208.886719 C 270.917969 203.863281 264.519531 199.167969 257.9375 194.933594 C 250.828125 190.34375 243.304688 186.171875 235.535156 182.484375 C 240.941406 177.316406 244.453125 172.285156 246.542969 168.722656 C 251.066406 161 253.285156 153.066406 255.007812 145.640625 C 257.445312 135.105469 258.660156 123.960938 258.625 112.503906 C 258.648438 112.433594 258.664062 112.363281 258.679688 112.292969 C 275.855469 81.015625 267.972656 42.292969 239.808594 19.992188 C 212.105469 -1.957031 171.890625 -1.957031 144.1875 19.992188 C 130.507812 30.824219 121.113281 46.167969 117.734375 63.1875 C 114.402344 79.960938 117.109375 97.394531 125.347656 112.375 C 125.042969 123.675781 126.269531 134.886719 129 145.699219 C 130.695312 152.421875 132.804688 160.792969 137.453125 168.726562 C 139.542969 172.285156 143.054688 177.316406 148.460938 182.484375 C 140.6875 186.167969 133.167969 190.34375 126.058594 194.933594 C 119.476562 199.167969 113.078125 203.863281 107.046875 208.886719 C 66.113281 242.996094 48.183594 286.453125 40.347656 316.902344 C 40.109375 317.828125 40.320312 318.8125 40.917969 319.558594 C 41.515625 320.304688 42.4375 320.710938 43.386719 320.691406 C 45.535156 320.621094 47.648438 320.613281 49.707031 320.652344 C 48.839844 323.960938 48.011719 327.335938 47.246094 330.730469 C 43.40625 347.699219 41.050781 365.207031 40.253906 382.765625 C 40.214844 383.59375 40.519531 384.402344 41.089844 385 C 41.664062 385.597656 42.457031 385.9375 43.285156 385.9375 L 340.710938 385.9375 C 341.539062 385.9375 342.332031 385.597656 342.902344 385 C 343.476562 384.402344 343.777344 383.59375 343.742188 382.765625 C 342.941406 365.207031 340.589844 347.699219 336.75 330.730469 C 335.980469 327.335938 335.15625 323.960938 334.285156 320.652344 Z M 147.644531 68.53125 C 159.164062 56.410156 175.332031 49.449219 192 49.433594 C 192.023438 49.433594 192.042969 49.433594 192.0625 49.433594 C 208.6875 49.433594 224.828125 56.339844 236.355469 68.390625 C 244.523438 76.929688 249.820312 87.277344 251.835938 98.363281 C 238.628906 79.210938 216.394531 67.398438 192.054688 67.398438 C 192.035156 67.398438 192.011719 67.398438 191.996094 67.398438 C 167.679688 67.425781 145.480469 79.242188 132.289062 98.375 C 134.296875 87.347656 139.546875 77.046875 147.644531 68.53125 Z M 142.6875 165.652344 C 138.476562 158.46875 136.570312 150.894531 134.886719 144.214844 C 132.273438 133.867188 131.117188 123.140625 131.429688 112.320312 C 141.835938 88.730469 165.542969 73.496094 192 73.46875 C 192.019531 73.46875 192.035156 73.46875 192.054688 73.46875 C 218.417969 73.46875 242.066406 88.5625 252.550781 111.988281 C 252.625 123.167969 251.464844 134.027344 249.09375 144.269531 C 247.480469 151.226562 245.417969 158.632812 241.308594 165.652344 C 238.101562 171.117188 233.417969 176.558594 228.125 180.972656 C 228.113281 180.984375 228.101562 180.996094 228.085938 181.003906 C 228.0625 181.027344 228.035156 181.050781 228.011719 181.074219 C 220.632812 187.191406 208.417969 194.449219 191.996094 194.449219 C 175.574219 194.449219 163.363281 187.191406 155.984375 181.074219 C 155.957031 181.050781 155.933594 181.027344 155.90625 181.003906 C 155.890625 180.992188 155.878906 180.980469 155.867188 180.972656 C 150.574219 176.558594 145.894531 171.117188 142.6875 165.652344 Z M 195.03125 200.519531 L 195.03125 215.046875 C 195.03125 216.722656 193.671875 218.082031 191.996094 218.082031 C 190.320312 218.082031 188.960938 216.722656 188.960938 215.046875 L 188.960938 200.519531 C 188.960938 198.84375 190.320312 197.484375 191.996094 197.484375 C 193.671875 197.484375 195.03125 198.84375 195.03125 200.519531 Z M 150.921875 188.035156 L 150.921875 204.351562 C 150.921875 205.253906 151.320312 206.109375 152.011719 206.683594 C 167.675781 219.710938 185.191406 221.117188 191.996094 221.117188 C 212.453125 221.117188 226.773438 211.023438 231.984375 206.683594 C 232.675781 206.105469 233.074219 205.25 233.074219 204.351562 L 233.074219 188.035156 C 239.855469 191.257812 246.433594 194.867188 252.707031 198.808594 C 245.359375 221.171875 226.234375 237.554688 202.929688 241.570312 C 202.667969 240.15625 201.4375 239.085938 199.949219 239.085938 L 184.046875 239.085938 C 182.558594 239.085938 181.328125 240.15625 181.066406 241.570312 C 157.757812 237.554688 138.632812 221.171875 131.289062 198.808594 C 137.558594 194.871094 144.136719 191.257812 150.921875 188.035156 Z M 46.480469 379.867188 C 47.386719 363.730469 49.632812 347.667969 53.164062 332.070312 C 54.015625 328.316406 54.9375 324.589844 55.910156 320.953125 C 70.195312 322.113281 81.546875 326.378906 89.675781 333.664062 C 94.195312 337.703125 97.277344 342.226562 100.847656 347.464844 C 105.492188 354.28125 110.757812 362.011719 120.753906 371.382812 C 123.921875 374.355469 127.257812 377.191406 130.722656 379.867188 Z M 148.691406 375.140625 C 148.179688 375.476562 147.605469 375.632812 147.039062 375.632812 C 146.046875 375.632812 145.074219 375.148438 144.492188 374.257812 C 140.140625 367.582031 136.546875 360.449219 133.816406 353.050781 C 130.355469 343.679688 129.257812 336.53125 128.289062 330.21875 C 127.320312 323.917969 126.484375 318.472656 123.535156 312.0625 C 119.5625 303.449219 112.914062 295.765625 103.773438 289.222656 C 102.410156 288.25 102.097656 286.355469 103.070312 284.992188 C 104.046875 283.625 105.941406 283.3125 107.304688 284.289062 C 117.3125 291.449219 124.628906 299.9375 129.046875 309.523438 C 132.351562 316.710938 133.292969 322.824219 134.289062 329.296875 C 135.257812 335.617188 136.261719 342.152344 139.507812 350.949219 C 142.085938 357.917969 145.472656 364.644531 149.578125 370.941406 C 150.492188 372.347656 150.097656 374.226562 148.691406 375.140625 Z M 215.480469 275.945312 L 199.949219 275.945312 C 198.273438 275.945312 196.914062 277.304688 196.914062 278.980469 L 196.914062 318.0625 L 187.082031 318.0625 L 187.082031 278.980469 C 187.082031 277.304688 185.722656 275.945312 184.046875 275.945312 L 168.515625 275.945312 L 168.515625 266.21875 L 184.046875 266.21875 C 185.722656 266.21875 187.082031 264.859375 187.082031 263.183594 L 187.082031 245.15625 L 196.914062 245.15625 L 196.914062 263.183594 C 196.914062 264.859375 198.273438 266.21875 199.949219 266.21875 L 215.480469 266.21875 Z M 239.503906 374.257812 C 238.921875 375.148438 237.949219 375.632812 236.957031 375.632812 C 236.390625 375.632812 235.8125 375.476562 235.304688 375.140625 C 233.898438 374.226562 233.503906 372.347656 234.417969 370.941406 C 238.523438 364.644531 241.910156 357.917969 244.484375 350.949219 C 247.730469 342.152344 248.738281 335.617188 249.707031 329.296875 C 250.703125 322.824219 251.640625 316.710938 254.945312 309.523438 C 259.367188 299.9375 266.683594 291.449219 276.691406 284.289062 C 278.054688 283.3125 279.949219 283.628906 280.925781 284.992188 C 281.898438 286.355469 281.585938 288.25 280.222656 289.222656 C 271.078125 295.765625 264.429688 303.449219 260.460938 312.0625 C 257.511719 318.472656 256.675781 323.917969 255.707031 330.21875 C 254.738281 336.527344 253.636719 343.679688 250.179688 353.050781 C 247.445312 360.449219 243.855469 367.582031 239.503906 374.257812 Z M 253.273438 379.867188 C 256.734375 377.191406 260.074219 374.359375 263.238281 371.382812 C 273.238281 362.011719 278.503906 354.28125 283.148438 347.464844 C 286.71875 342.226562 289.800781 337.703125 294.320312 333.660156 C 302.449219 326.378906 313.800781 322.113281 328.082031 320.953125 C 329.058594 324.589844 329.980469 328.316406 330.828125 332.070312 C 334.359375 347.667969 336.605469 363.734375 337.515625 379.867188 Z M 253.273438 379.867188 " fill-opacity="1" fill-rule="nonzero"/></g></svg>